<?xml version="1.0" standalone="no"?>
<!DOCTYPE svg PUBLIC "-//W3C//DTD SVG 20010904//EN"
 "http://www.w3.org/TR/2001/REC-SVG-20010904/DTD/svg10.dtd">
<svg version="1.0" xmlns="http://www.w3.org/2000/svg"
 width="700.000000pt" height="700.000000pt" viewBox="0 0 700.000000 700.000000"
 preserveAspectRatio="xMidYMid meet">
<metadata>
Created by potrace 1.14, written by Peter Selinger 2001-2017
</metadata>
<g transform="translate(0.000000,700.000000) scale(0.100000,-0.100000)"
fill="#000000" stroke="none">
<path d="M5894 6915 c-100 -15 -169 -51 -232 -120 -71 -78 -90 -126 -227 -570
-24 -77 -85 -270 -135 -430 -50 -159 -104 -330 -120 -380 -81 -259 -245 -778
-285 -905 -26 -80 -48 -149 -49 -155 -2 -10 -71 -227 -132 -420 -20 -60 -37
-117 -39 -125 -2 -8 -38 -123 -80 -255 -42 -132 -92 -289 -110 -350 -19 -60
-45 -144 -58 -185 -14 -41 -46 -142 -72 -225 -46 -148 -106 -340 -210 -670
-30 -93 -105 -334 -169 -535 -63 -201 -133 -423 -156 -495 -23 -71 -52 -164
-65 -205 -64 -205 -86 -274 -89 -278 -7 -6 -67 87 -92 144 -20 47 -159 483
-184 579 -4 17 -45 152 -90 300 -45 149 -95 313 -110 365 -15 52 -44 149 -64
215 -20 66 -46 152 -57 190 -23 76 -24 79 -100 330 -28 94 -55 184 -59 200 -4
17 -38 131 -74 255 -114 385 -176 476 -356 523 -68 17 -143 14 -212 -9 -77
-25 -161 -113 -215 -224 -39 -79 -55 -115 -138 -295 -68 -149 -155 -333 -240
-510 -37 -77 -75 -158 -85 -180 -21 -48 -63 -95 -109 -123 -31 -19 -37 -19
-62 -7 -14 8 -45 35 -67 60 -44 50 -65 106 -157 415 -82 276 -108 332 -176
377 -83 55 -184 32 -322 -74 -91 -70 -97 -76 -87 -93 7 -12 30 -4 125 44 185
94 241 87 285 -32 12 -31 50 -174 85 -317 76 -311 102 -391 145 -445 88 -111
277 -124 382 -27 49 46 72 83 183 292 53 99 164 304 203 375 13 25 40 74 60
110 20 36 48 87 64 113 15 26 28 49 28 51 0 2 23 43 50 92 51 89 101 144 153
165 24 10 31 9 53 -12 42 -40 94 -134 104 -191 13 -71 10 -56 85 -373 37 -154
68 -287 70 -295 5 -25 98 -420 200 -848 138 -586 152 -646 207 -872 27 -113
51 -212 53 -220 50 -237 97 -356 180 -448 134 -149 404 -181 576 -69 120 77
156 139 294 502 31 83 72 188 90 235 18 47 60 159 95 250 34 91 66 174 71 185
5 11 103 269 219 574 271 713 290 762 301 786 8 21 29 74 144 375 37 96 86
225 110 285 116 298 140 361 142 370 2 12 130 342 143 370 5 11 59 153 120
315 62 162 120 315 130 340 16 38 105 272 185 485 93 244 156 412 162 425 3 8
14 35 23 60 9 25 67 175 129 334 62 159 119 319 127 355 53 227 -92 477 -303
521 -78 16 -104 17 -189 5z"/>
</g>
</svg>
